<svg width="34" height="41" viewBox="0 0 34 41" fill="none" xmlns="http://www.w3.org/2000/svg">
<path d="M11.6314 40.2067C8.91862 40.2098 6.20584 40.2575 3.49602 40.1928C2.44601 40.1682 1.62355 39.5288 1.02269 38.6137C0.607737 37.9805 0.490243 37.2749 0.490243 36.5354C0.488755 31.2619 0.487268 25.9899 0.490243 20.7164C0.490243 19.7658 0.909654 19.3391 1.82284 19.3391C5.09187 19.3406 8.36238 19.3452 11.6314 19.3483C11.6314 26.3011 11.6314 33.2523 11.6314 40.2051V40.2067Z" fill="#7E77F9"/>
<path d="M29.4728 36.8342C29.4832 38.6768 27.9528 40.2097 26.2201 40.2128C23.607 40.2189 20.9939 40.2082 18.3807 40.2051C18.3807 33.3278 18.3792 26.452 18.3777 19.5747C18.3777 19.4977 18.3867 19.4222 18.3926 19.3452C18.5607 19.3868 18.7273 19.4268 18.8953 19.4684C18.9548 19.5085 19.0113 19.5608 19.0753 19.5855C21.8773 20.6424 24.6823 21.693 27.4828 22.7515C28.164 23.0087 28.8333 23.2953 29.5085 23.568C29.513 24.9514 29.5204 26.3334 29.5204 27.7169C29.5204 30.7257 29.5159 33.7345 29.513 36.7449C29.4996 36.7757 29.4862 36.8065 29.4728 36.8373V36.8342Z" fill="#5660D1"/>
<path d="M29.51 23.5665C28.8348 23.2938 28.1641 23.0072 27.4844 22.75C24.6838 21.69 21.8788 20.6393 19.0768 19.584C19.0114 19.5594 18.9563 19.507 18.8969 19.4669C19.2226 18.5025 19.5408 17.535 19.874 16.5721C20.5403 14.6448 21.2155 12.7206 21.8863 10.7948C22.847 11.1507 23.8093 11.5081 24.7701 11.864C25.7547 12.2276 26.7407 12.5896 27.7253 12.9517C28.3752 13.2089 29.0296 13.4554 29.6751 13.725C30.447 14.047 31.2591 14.3012 31.9685 14.7357C33.2312 15.5091 33.8172 17.0574 33.3829 18.4979C32.9085 20.0724 32.3344 21.6161 31.7677 23.1582C31.5193 23.8315 30.8843 24.0549 30.2462 23.796C30.0083 23.699 29.7554 23.642 29.51 23.5665Z" fill="#7E77F9"/>
<path d="M12.5699 17.1067C11.7727 16.8171 10.9741 16.5305 10.1784 16.2347C9.18487 15.865 8.19286 15.486 7.20085 15.1131C6.30253 14.7757 5.40422 14.4399 4.50591 14.104C3.4782 13.7189 2.45198 13.3276 1.41981 12.9517C0.885883 12.7575 0.418879 12.5003 0.277588 11.8717C0.250818 11.7531 0.231483 11.6082 0.270152 11.5004C0.841265 9.89045 1.37668 8.26202 2.0177 6.68135C2.64682 5.12995 4.26348 4.34116 5.81471 4.8018C6.88555 5.11917 7.92218 5.56133 8.97665 5.93878C9.18636 6.01427 9.40945 6.04662 9.6251 6.099C9.73814 6.16833 9.84373 6.25614 9.96569 6.30544C10.3211 6.45026 10.6811 6.58121 11.0395 6.71371C12.3483 7.199 13.6571 7.68275 14.9644 8.1665C14.9689 8.18807 14.9719 8.21118 14.9733 8.23275C14.9719 8.85362 14.9689 9.47449 14.9674 10.0954C14.9451 10.2017 14.9228 10.3064 14.9005 10.4127C14.5361 11.4434 14.1687 12.4725 13.8103 13.5047C13.3924 14.7049 12.9834 15.9065 12.5699 17.1067Z" fill="#7E77F9"/>
<path d="M14.9749 8.2327C14.9734 8.20959 14.9704 8.18802 14.9659 8.16645C14.9659 5.73536 14.9659 3.30273 14.9659 0.871643C16.5201 1.06422 18.1309 2.50623 18.4477 4.08228C18.699 5.32402 18.8567 6.58578 19.0574 7.83984C19.0768 7.96155 19.1125 8.08018 19.1496 8.24348C20.0316 7.44236 20.8868 6.66743 21.7405 5.89096C24.1484 3.69867 28.1491 4.78634 29.0311 8.10945C29.4847 9.81953 29.153 11.4094 27.926 12.7282C27.8576 12.8022 27.7922 12.8792 27.7253 12.9547C26.7407 12.5926 25.7546 12.2306 24.77 11.867C23.8078 11.5111 22.847 11.1552 21.8862 10.7978C21.8461 10.7701 21.8104 10.7331 21.7658 10.7162C19.926 10.026 18.0862 9.33578 16.245 8.65329C16.0293 8.57317 15.7973 8.53928 15.5728 8.48382C15.3735 8.40062 15.1742 8.31897 14.9749 8.23578V8.2327Z" fill="#EF8E3F"/>
<path d="M18.3926 19.3453C18.3882 19.4223 18.3778 19.4978 18.3778 19.5748C18.3778 26.4521 18.3778 33.3279 18.3807 40.2052C17.243 40.2052 16.1052 40.2037 14.9689 40.2021C14.9689 33.2524 14.9689 26.3042 14.9689 19.3545C16.0799 19.3484 17.1924 19.3437 18.3034 19.3376C18.3331 19.3407 18.3629 19.3422 18.3941 19.3453H18.3926Z" fill="#F09E43"/>
<path d="M14.9674 19.3545C14.9674 26.3042 14.9674 33.2524 14.9674 40.2021C13.855 40.2037 12.7425 40.2052 11.63 40.2068C11.63 33.254 11.63 26.3027 11.63 19.3499C12.7425 19.3515 13.855 19.353 14.9674 19.3545Z" fill="#F3C14D"/>
<path d="M18.3925 19.3452C18.3628 19.3422 18.3331 19.3406 18.3018 19.3375C17.3842 18.9801 16.465 18.6227 15.5474 18.2637C15.3526 18.1867 15.1607 18.1004 14.9674 18.0188C14.9674 15.6308 14.9674 13.2444 14.9629 10.8565C14.9629 10.7086 14.9227 10.5607 14.9019 10.4128C14.9242 10.3065 14.9465 10.2017 14.9688 10.0954C15.1696 9.55772 15.3719 9.01851 15.5727 8.48083C15.7973 8.5363 16.0293 8.57019 16.2449 8.6503C18.0877 9.33279 19.9259 10.023 21.7657 10.7132C21.8088 10.7301 21.846 10.7671 21.8862 10.7948C21.2154 12.7206 20.5402 14.6448 19.8739 16.5721C19.5407 17.535 19.2224 18.5025 18.8967 19.467C18.7287 19.4254 18.5621 19.3853 18.394 19.3437L18.3925 19.3452Z" fill="#F09E43"/>
<path d="M14.9659 0.871716C14.9659 3.3028 14.9659 5.73543 14.9659 8.16652C13.6571 7.68277 12.3483 7.19902 11.0409 6.71372C10.6825 6.58123 10.3226 6.44874 9.96713 6.30546C9.84666 6.25616 9.73958 6.16835 9.62655 6.09902C9.35735 3.57241 10.8744 1.71135 12.5743 1.06737C13.3522 0.773116 14.1538 0.734601 14.9659 0.871716Z" fill="#F09E43"/>
<path d="M14.9019 10.4127C14.9228 10.5606 14.9629 10.7085 14.9629 10.8564C14.9674 13.2444 14.9674 15.6308 14.9674 18.0187C14.1687 17.7152 13.37 17.4102 12.5699 17.1067C12.9833 15.9065 13.3938 14.7033 13.8103 13.5047C14.1702 12.4725 14.5375 11.4434 14.9004 10.4127H14.9019Z" fill="#F3C04D"/>
<path d="M15.5712 8.48083C15.3704 9.0185 15.1681 9.55772 14.9673 10.0954C14.9688 9.47452 14.9718 8.85366 14.9733 8.23279C15.1726 8.31598 15.3719 8.39763 15.5712 8.48083Z" fill="#5660D1" fill-opacity="0.909804"/>
</svg>
