<svg width="28" height="28" viewBox="0 0 28 28" fill="none" xmlns="http://www.w3.org/2000/svg">
<path d="M25.6667 26.5417H2.33334C1.85501 26.5417 1.45834 26.145 1.45834 25.6667C1.45834 25.1883 1.85501 24.7917 2.33334 24.7917H25.6667C26.145 24.7917 26.5417 25.1883 26.5417 25.6667C26.5417 26.145 26.145 26.5417 25.6667 26.5417Z" fill="white"/>
<path d="M16.625 26.5417H11.375C10.8967 26.5417 10.5 26.145 10.5 25.6667V4.66667C10.5 2.66 11.6083 1.45833 13.475 1.45833H14.525C16.3917 1.45833 17.5 2.66 17.5 4.66667V25.6667C17.5 26.145 17.1033 26.5417 16.625 26.5417ZM12.25 24.7917H15.75V4.66667C15.75 3.325 15.12 3.20833 14.525 3.20833H13.475C12.88 3.20833 12.25 3.325 12.25 4.66667V24.7917Z" fill="white"/>
<path d="M8.16667 26.5417H3.5C3.02167 26.5417 2.625 26.145 2.625 25.6667V11.6667C2.625 9.66 3.65167 8.45833 5.36667 8.45833H6.3C8.015 8.45833 9.04167 9.66 9.04167 11.6667V25.6667C9.04167 26.145 8.645 26.5417 8.16667 26.5417ZM4.375 24.7917H7.29167V11.6667C7.29167 10.2083 6.65 10.2083 6.3 10.2083H5.36667C5.01667 10.2083 4.375 10.2083 4.375 11.6667V24.7917Z" fill="white"/>
<path d="M24.5 26.5417H19.8333C19.355 26.5417 18.9583 26.145 18.9583 25.6667V17.5C18.9583 15.4933 19.985 14.2917 21.7 14.2917H22.6333C24.3483 14.2917 25.375 15.4933 25.375 17.5V25.6667C25.375 26.145 24.9783 26.5417 24.5 26.5417ZM20.7083 24.7917H23.625V17.5C23.625 16.0417 22.9833 16.0417 22.6333 16.0417H21.7C21.35 16.0417 20.7083 16.0417 20.7083 17.5V24.7917Z" fill="white"/>
</svg>
