<svg width="28" height="28" viewBox="0 0 28 28" fill="none" xmlns="http://www.w3.org/2000/svg">
<path d="M25.6667 25.6667H2.33333C1.85499 25.6667 1.45833 25.27 1.45833 24.7917C1.45833 24.3133 1.85499 23.9167 2.33333 23.9167H25.6667C26.145 23.9167 26.5417 24.3133 26.5417 24.7917C26.5417 25.27 26.145 25.6667 25.6667 25.6667Z" fill="white"/>
<path d="M11.375 4.66667V25.6667H16.625V4.66667C16.625 3.38333 16.1 2.33333 14.525 2.33333H13.475C11.9 2.33333 11.375 3.38333 11.375 4.66667Z" fill="white"/>
<path d="M3.5 11.6667V25.6667H8.16667V11.6667C8.16667 10.3833 7.7 9.33333 6.3 9.33333H5.36667C3.96667 9.33333 3.5 10.3833 3.5 11.6667Z" fill="white"/>
<path d="M19.8333 17.5V25.6667H24.5V17.5C24.5 16.2167 24.0333 15.1667 22.6333 15.1667H21.7C20.3 15.1667 19.8333 16.2167 19.8333 17.5Z" fill="white"/>
</svg>
