<svg width="36" height="36" viewBox="0 0 36 36" fill="none" xmlns="http://www.w3.org/2000/svg">
<path d="M32.6107 24.8072C32.492 26.2457 31.5726 27.4914 30.0303 28.3367C28.5473 29.1523 26.6787 29.5379 24.825 29.4934C25.8928 28.5295 26.5156 27.3282 26.6342 26.0529C26.7825 24.214 25.9076 22.4492 24.1577 21.0404C23.1641 20.2544 22.0074 19.6316 20.7468 19.1719C24.0242 18.2228 28.1469 18.8604 30.6828 20.9069C32.0471 22.0044 32.7441 23.3835 32.6107 24.8072Z" fill="#565656" fill-opacity="0.878431"/>
<path d="M29.6448 11.0893C29.8821 13.9662 27.8355 16.4873 25.0031 16.8284C24.9882 16.8284 24.9882 16.8284 24.9734 16.8284H24.9289C24.8399 16.8284 24.7509 16.8284 24.6768 16.8581C23.2383 16.9322 21.9185 16.4725 20.9249 15.6272C22.4523 14.2628 23.3273 12.2163 23.1493 9.99186C23.0455 8.79065 22.6303 7.69325 22.0074 6.75897C22.571 6.47721 23.2235 6.29925 23.8908 6.23993C26.7975 5.98782 29.3927 8.15297 29.6448 11.0893Z" fill="#565656" fill-opacity="0.878431"/>
<path d="M20.8804 21.1884C16.7429 18.43 9.99531 18.43 5.82814 21.1884C3.94476 22.4489 2.90668 24.1543 2.90668 25.9784C2.90668 27.8025 3.94476 29.4931 5.81331 30.7388C7.88948 32.1328 10.6182 32.8298 13.3468 32.8298C16.0755 32.8298 18.8042 32.1328 20.8804 30.7388C22.7489 29.4782 23.787 27.7876 23.787 25.9487C23.7722 24.1247 22.7489 22.4341 20.8804 21.1884Z" fill="#565656" fill-opacity="0.878431"/>
<path d="M13.3468 3.17041C9.46142 3.17041 6.30267 6.32915 6.30267 10.2146C6.30267 14.0258 9.28346 17.1104 13.1689 17.2439C13.2875 17.229 13.4061 17.229 13.4951 17.2439C13.5248 17.2439 13.5396 17.2439 13.5693 17.2439C13.5841 17.2439 13.5841 17.2439 13.5989 17.2439C17.3954 17.1104 20.3761 14.0258 20.391 10.2146C20.391 6.32915 17.2322 3.17041 13.3468 3.17041Z" fill="#565656" fill-opacity="0.878431"/>
</svg>
