<svg width="41" height="42" viewBox="0 0 41 42" fill="none" xmlns="http://www.w3.org/2000/svg">
<path d="M37.1398 28.7522C37.0047 30.3905 35.9576 31.8092 34.2011 32.7719C32.5121 33.7008 30.3841 34.1399 28.2729 34.0893C29.4889 32.9915 30.1983 31.6234 30.3334 30.1709C30.5023 28.0766 29.5058 26.0668 27.5129 24.4623C26.3813 23.5672 25.0639 22.8578 23.6283 22.3342C27.3609 21.2533 32.0561 21.9796 34.9442 24.3103C36.498 25.5601 37.2918 27.1308 37.1398 28.7522Z" fill="#E0E2E5"/>
<path d="M33.762 13.1295C34.0322 16.406 31.7015 19.2772 28.4756 19.6657C28.4587 19.6657 28.4587 19.6657 28.4418 19.6657H28.3911C28.2898 19.6657 28.1885 19.6657 28.104 19.6995C26.4657 19.7839 24.9626 19.2604 23.831 18.2977C25.5706 16.7438 26.5671 14.4131 26.3644 11.8797C26.2462 10.5116 25.7733 9.26182 25.0639 8.19778C25.7057 7.87689 26.4489 7.67421 27.2089 7.60666C30.5192 7.31954 33.4749 9.78539 33.762 13.1295Z" fill="#E0E2E5"/>
<path d="M23.7803 24.6312C19.0682 21.4898 11.3835 21.4898 6.63755 24.6312C4.49259 26.0668 3.31033 28.0091 3.31033 30.0865C3.31033 32.1639 4.49259 34.0893 6.62066 35.508C8.98518 37.0956 12.0928 37.8894 15.2005 37.8894C18.3081 37.8894 21.4158 37.0956 23.7803 35.508C25.9084 34.0724 27.0906 32.147 27.0906 30.0527C27.0737 27.9753 25.9084 26.0499 23.7803 24.6312Z" fill="#E0E2E5"/>
<path d="M15.2005 4.1105C10.7754 4.1105 7.17798 7.70795 7.17798 12.133C7.17798 16.4736 10.5728 19.9866 14.9978 20.1386C15.1329 20.1217 15.268 20.1217 15.3693 20.1386C15.4031 20.1386 15.42 20.1386 15.4538 20.1386C15.4707 20.1386 15.4707 20.1386 15.4876 20.1386C19.8113 19.9866 23.206 16.4736 23.2229 12.133C23.2229 7.70795 19.6255 4.1105 15.2005 4.1105Z" fill="#E0E2E5"/>
</svg>
