<svg width="20" height="21" viewBox="0 0 20 21" fill="none" xmlns="http://www.w3.org/2000/svg">
<path d="M9.99999 19.4583C5.05832 19.4583 1.04166 15.4416 1.04166 10.5C1.04166 5.55829 5.05832 1.54163 9.99999 1.54163C14.9417 1.54163 18.9583 5.55829 18.9583 10.5C18.9583 15.4416 14.9417 19.4583 9.99999 19.4583ZM9.99999 2.79163C5.74999 2.79163 2.29166 6.24996 2.29166 10.5C2.29166 14.75 5.74999 18.2083 9.99999 18.2083C14.25 18.2083 17.7083 14.75 17.7083 10.5C17.7083 6.24996 14.25 2.79163 9.99999 2.79163Z" fill="white"/>
<path d="M7.50001 18.625H6.66668C6.32501 18.625 6.04168 18.3417 6.04168 18C6.04168 17.6583 6.30835 17.3833 6.65001 17.375C5.34168 12.9083 5.34168 8.09167 6.65001 3.625C6.30835 3.61667 6.04168 3.34167 6.04168 3C6.04168 2.65833 6.32501 2.375 6.66668 2.375H7.50001C7.70001 2.375 7.89168 2.475 8.00835 2.63333C8.12501 2.8 8.15835 3.00833 8.09168 3.2C6.52501 7.90833 6.52501 13.0917 8.09168 17.8083C8.15835 18 8.12501 18.2083 8.00835 18.375C7.89168 18.525 7.70001 18.625 7.50001 18.625Z" fill="white"/>
<path d="M12.5 18.625C12.4333 18.625 12.3667 18.6167 12.3 18.5917C11.975 18.4833 11.7917 18.125 11.9083 17.8C13.475 13.0917 13.475 7.90832 11.9083 3.19165C11.8 2.86665 11.975 2.50832 12.3 2.39999C12.6333 2.29165 12.9833 2.46665 13.0917 2.79165C14.75 7.75832 14.75 13.225 13.0917 18.1833C13.0083 18.4583 12.7583 18.625 12.5 18.625Z" fill="white"/>
<path d="M10 14.8334C7.675 14.8334 5.35833 14.5084 3.125 13.85C3.11667 14.1834 2.84167 14.4584 2.5 14.4584C2.15833 14.4584 1.875 14.175 1.875 13.8334V13C1.875 12.8 1.975 12.6084 2.13333 12.4917C2.3 12.375 2.50833 12.3417 2.7 12.4084C7.40833 13.975 12.6 13.975 17.3083 12.4084C17.5 12.3417 17.7083 12.375 17.875 12.4917C18.0417 12.6084 18.1333 12.8 18.1333 13V13.8334C18.1333 14.175 17.85 14.4584 17.5083 14.4584C17.1667 14.4584 16.8917 14.1917 16.8833 13.85C14.6417 14.5084 12.325 14.8334 10 14.8334Z" fill="white"/>
<path d="M17.5 8.62497C17.4333 8.62497 17.3667 8.61663 17.3 8.59163C12.5917 7.02497 7.39999 7.02497 2.69166 8.59163C2.35833 8.69997 2.00833 8.52497 1.89999 8.19997C1.79999 7.86663 1.97499 7.51663 2.29999 7.4083C7.26666 5.74997 12.7333 5.74997 17.6917 7.4083C18.0167 7.51663 18.2 7.87497 18.0833 8.19997C18.0083 8.4583 17.7583 8.62497 17.5 8.62497Z" fill="white"/>
</svg>
