<svg width="53" height="53" viewBox="0 0 53 53" fill="none" xmlns="http://www.w3.org/2000/svg">
<g clip-path="url(#clip0_109_2346)">
<path d="M45.276 7.81296L40.8979 12.1911C37.2139 8.54264 32.1417 6.2824 26.5356 6.2824C15.27 6.2824 6.14003 15.4124 6.14003 26.678C6.14003 32.2841 8.40027 37.3563 12.0487 41.0403L7.77737 45.3116C2.98993 40.4886 0 33.8324 0 26.5C0 11.8707 11.8707 0 26.5 0C33.8324 0 40.4886 2.98993 45.276 7.81296Z" fill="url(#paint0_linear_109_2346)"/>
<path d="M53 26.5C53 41.1293 41.1293 53 26.5 53C19.2032 53 12.6004 50.0456 7.81299 45.276L12.0843 41.0047C15.7861 44.7243 20.8939 47.0379 26.5712 47.0379C37.8368 47.0379 46.9668 37.908 46.9668 26.6424C46.9668 20.9829 44.6531 15.8573 40.9335 12.1554L45.3116 7.77734C50.0813 12.5648 53.0356 19.1675 53.0356 26.4644L53 26.5Z" fill="url(#paint1_linear_109_2346)"/>
<path d="M33.6366 22.6202H30.4688L33.1561 19.9329C33.4765 20.7159 33.6366 21.6236 33.6366 22.6202Z" fill="#D28228"/>
<path d="M40.9157 12.1733L33.1561 19.9328C32.907 19.3277 32.5688 18.776 32.1417 18.2955C31.1451 17.1921 29.7391 16.5158 27.9772 16.2844V13.3301H25.5745V16.2488C23.777 16.409 22.3355 16.9785 21.2498 17.9573C20.1642 18.9362 19.6303 20.1998 19.6303 21.7303C19.6303 22.6202 19.7905 23.3855 20.1108 24.0262C20.4312 24.6669 20.8761 25.2364 21.4278 25.6991C21.9973 26.1796 22.6736 26.589 23.4745 26.9627C24.0262 27.2119 24.6491 27.4788 25.361 27.728L23.0295 30.0594H18.8116C18.8116 31.3764 19.0964 32.4976 19.6481 33.4409L12.1021 40.9869C8.45366 37.3029 6.19342 32.2307 6.19342 26.6246C6.19342 15.359 15.3234 6.229 26.589 6.229C32.1951 6.229 37.2673 8.48925 40.9513 12.1377L40.9157 12.1733Z" fill="#FFD34A"/>
<path d="M30.4687 22.6202L28.0483 25.0406C27.7458 24.916 27.4254 24.8092 27.0873 24.6846C25.8949 24.2575 25.0584 23.8304 24.6313 23.4032C24.1863 22.9939 23.9728 22.4244 23.9728 21.7481C23.9728 21.0006 24.2041 20.4133 24.6491 20.004C25.094 19.5768 25.7347 19.3633 26.5534 19.3633C27.372 19.3633 28.0483 19.6302 28.5467 20.182C29.045 20.7159 29.2941 21.5345 29.2941 22.6202H30.4687Z" fill="#FFD34A"/>
<path d="M46.9489 26.6601C46.9489 37.9258 37.819 47.0557 26.5534 47.0557C20.8939 47.0557 15.7683 44.7421 12.0665 41.0225L19.6125 33.4765C19.8438 33.868 20.1286 34.2417 20.4667 34.5621C21.6058 35.6833 23.1897 36.3418 25.2542 36.5376V39.225H27.6568V36.5198C29.5255 36.3418 30.9849 35.7723 32.0527 34.8113C33.1205 33.8502 33.6544 32.6044 33.6544 31.0561C33.6544 30.2374 33.5121 29.5077 33.2273 28.8848C32.9426 28.2619 32.5332 27.7102 31.9993 27.2297C31.4654 26.7491 30.8069 26.3042 30.0416 25.9305C29.4899 25.6457 28.8136 25.361 28.0305 25.0584L30.451 22.638H33.6188C33.6188 21.6413 33.4587 20.7337 33.1383 19.9506L40.8979 12.191C44.6175 15.8929 46.9311 21.0006 46.9311 26.6779L46.9489 26.6601Z" fill="#FFC219"/>
<path d="M33.6366 31.056C33.6366 32.6044 33.1027 33.8502 32.0349 34.8112C30.9671 35.7723 29.5077 36.3418 27.639 36.5198V39.2249H25.2364V36.5376C23.1719 36.3418 21.5879 35.6833 20.4489 34.5621C20.1108 34.2239 19.826 33.868 19.5947 33.4764L22.9761 30.095H23.1007C23.1007 31.1806 23.3855 31.9993 23.955 32.5866C24.5245 33.1739 25.3432 33.4586 26.3932 33.4586C27.283 33.4586 27.9771 33.2451 28.4933 32.8179C29.0094 32.3908 29.2585 31.8213 29.2585 31.1094C29.2585 30.3975 29.0272 29.7746 28.5644 29.3297C28.1017 28.8848 27.3364 28.4754 26.233 28.1195C25.8949 28.0127 25.5923 27.8881 25.2898 27.7813L27.9949 25.0762C28.778 25.3787 29.4365 25.6635 30.006 25.9482C30.7713 26.3398 31.4298 26.7669 31.9637 27.2474C32.4976 27.728 32.907 28.2797 33.1917 28.9026C33.4765 29.5255 33.6188 30.2551 33.6188 31.0738L33.6366 31.056Z" fill="#D28228"/>
<path d="M33.1561 19.9329L30.4688 22.6202H29.2942C29.2942 21.5346 29.045 20.7159 28.5467 20.182C28.0484 19.6481 27.3899 19.3633 26.5534 19.3633C25.7169 19.3633 25.094 19.5769 24.6491 20.004C24.2042 20.4312 23.9728 21.0007 23.9728 21.7482C23.9728 22.4423 24.1864 22.994 24.6313 23.4033C25.0762 23.8126 25.8949 24.2398 27.0873 24.6847C27.4254 24.8093 27.7458 24.9339 28.0484 25.0406L25.3432 27.7458C24.6491 27.4967 24.0084 27.2297 23.4567 26.9805C22.6558 26.6068 21.9795 26.1975 21.41 25.7169C20.8405 25.2364 20.3956 24.6847 20.093 24.044C19.7727 23.4033 19.6125 22.638 19.6125 21.7482C19.6125 20.2176 20.1464 18.954 21.232 17.9752C22.3177 16.9963 23.7592 16.4268 25.5567 16.2666V13.3479H27.9594V16.3022C29.7391 16.5336 31.1273 17.1921 32.1239 18.3133C32.551 18.7938 32.907 19.3455 33.1383 19.9507L33.1561 19.9329Z" fill="#ECAC3E"/>
<path d="M23.0118 30.0773L19.6303 33.4587C19.0608 32.5155 18.7938 31.3943 18.7938 30.0773H23.0118Z" fill="#ECAC3E"/>
<path d="M29.2942 31.0917C29.2942 31.8036 29.045 32.3731 28.5289 32.8002C28.0128 33.2274 27.3187 33.4409 26.4288 33.4409C25.361 33.4409 24.5423 33.1562 23.9906 32.5689C23.4389 31.9816 23.1364 31.1629 23.1364 30.0773H23.0118L25.3432 27.7458C25.6458 27.8526 25.9661 27.9772 26.2865 28.084C27.3899 28.4577 28.1552 28.8671 28.6179 29.2942C29.0806 29.7391 29.312 30.3264 29.312 31.0739L29.2942 31.0917Z" fill="#FFC219"/>
</g>
<defs>
<linearGradient id="paint0_linear_109_2346" x1="4.23573" y1="6.62055" x2="38.0326" y2="36.7512" gradientUnits="userSpaceOnUse">
<stop offset="0.19" stop-color="#FFC219"/>
<stop offset="0.21" stop-color="#FFC424"/>
<stop offset="0.32" stop-color="#FFD45D"/>
<stop offset="0.43" stop-color="#FFE18E"/>
<stop offset="0.54" stop-color="#FFEBB7"/>
<stop offset="0.64" stop-color="#FFF4D6"/>
<stop offset="0.74" stop-color="#FFFAEC"/>
<stop offset="0.84" stop-color="#FFFDFA"/>
<stop offset="0.92" stop-color="white"/>
</linearGradient>
<linearGradient id="paint1_linear_109_2346" x1="54.2814" y1="50.2414" x2="19.8973" y2="20.9295" gradientUnits="userSpaceOnUse">
<stop offset="0.47" stop-color="#FFD34A"/>
<stop offset="0.73" stop-color="#ECAC3E"/>
</linearGradient>
<clipPath id="clip0_109_2346">
<rect width="53" height="53" fill="white"/>
</clipPath>
</defs>
</svg>
