<svg width="28" height="28" viewBox="0 0 28 28" fill="none" xmlns="http://www.w3.org/2000/svg">
<path d="M20.755 26.5417H7.24501C4.04834 26.5417 1.45834 23.94 1.45834 20.7433V12.0983C1.45834 10.5117 2.43834 8.51667 3.69834 7.53667L9.98668 2.63667C11.8767 1.16667 14.8983 1.09667 16.8583 2.47333L24.0683 7.525C25.4567 8.49333 26.5417 10.57 26.5417 12.2617V20.755C26.5417 23.94 23.9517 26.5417 20.755 26.5417ZM11.06 4.01333L4.77168 8.91333C3.94334 9.56667 3.20834 11.0483 3.20834 12.0983V20.7433C3.20834 22.9717 5.01668 24.7917 7.24501 24.7917H20.755C22.9833 24.7917 24.7917 22.9833 24.7917 20.755V12.2617C24.7917 11.1417 23.9867 9.59 23.065 8.96L15.855 3.90833C14.525 2.975 12.3317 3.02167 11.06 4.01333Z" fill="white"/>
<path d="M14 21.875C13.5217 21.875 13.125 21.4783 13.125 21V17.5C13.125 17.0217 13.5217 16.625 14 16.625C14.4783 16.625 14.875 17.0217 14.875 17.5V21C14.875 21.4783 14.4783 21.875 14 21.875Z" fill="white"/>
</svg>
