<svg width="28" height="28" viewBox="0 0 28 28" fill="none" xmlns="http://www.w3.org/2000/svg">
<path d="M21.875 9.33331V11.7833C21.3617 11.7133 20.7783 11.6783 20.125 11.6666V9.33331C20.125 5.65831 19.0867 3.20831 14 3.20831C8.91333 3.20831 7.875 5.65831 7.875 9.33331V11.6666C7.22167 11.6783 6.63833 11.7133 6.125 11.7833V9.33331C6.125 5.94998 6.94167 1.45831 14 1.45831C21.0583 1.45831 21.875 5.94998 21.875 9.33331Z" fill="#ACB0FF"/>
<path d="M21.875 11.7834C21.3616 11.7134 20.7783 11.6784 20.125 11.6667H7.87498C7.22165 11.6784 6.63831 11.7134 6.12498 11.7834C3.14998 12.145 2.33331 13.6034 2.33331 17.5V19.8334C2.33331 24.5 3.49998 25.6667 8.16665 25.6667H19.8333C24.5 25.6667 25.6666 24.5 25.6666 19.8334V17.5C25.6666 13.6034 24.85 12.145 21.875 11.7834ZM10.1616 19.495C9.93998 19.705 9.63665 19.8334 9.33331 19.8334C9.18165 19.8334 9.02998 19.7984 8.88998 19.74C8.73831 19.6817 8.62165 19.6 8.50498 19.495C8.29498 19.2734 8.16665 18.97 8.16665 18.6667C8.16665 18.515 8.20165 18.3634 8.25998 18.2234C8.31831 18.0834 8.39998 17.955 8.50498 17.8384C8.62165 17.7334 8.73831 17.6517 8.88998 17.5934C9.32165 17.4067 9.83498 17.5117 10.1616 17.8384C10.2666 17.955 10.3483 18.0834 10.4066 18.2234C10.465 18.3634 10.5 18.515 10.5 18.6667C10.5 18.97 10.3716 19.2734 10.1616 19.495ZM15.0733 19.11C15.015 19.25 14.9333 19.3784 14.8283 19.495C14.6066 19.705 14.3033 19.8334 14 19.8334C13.685 19.8334 13.3933 19.705 13.1716 19.495C13.0666 19.3784 12.985 19.25 12.9266 19.11C12.8683 18.97 12.8333 18.8184 12.8333 18.6667C12.8333 18.3517 12.9616 18.06 13.1716 17.8384C13.6033 17.4067 14.385 17.4067 14.8283 17.8384C15.0383 18.06 15.1666 18.3517 15.1666 18.6667C15.1666 18.8184 15.1316 18.97 15.0733 19.11ZM19.495 19.495C19.2733 19.705 18.97 19.8334 18.6666 19.8334C18.3633 19.8334 18.06 19.705 17.8383 19.495C17.6283 19.2734 17.5 18.9817 17.5 18.6667C17.5 18.3517 17.6283 18.06 17.8383 17.8384C18.2816 17.4067 19.0633 17.4067 19.495 17.8384C19.5416 17.8967 19.5883 17.955 19.635 18.025C19.6816 18.0834 19.7166 18.1534 19.74 18.2234C19.775 18.2934 19.7983 18.3634 19.81 18.4334C19.8216 18.515 19.8333 18.5967 19.8333 18.6667C19.8333 18.97 19.705 19.2734 19.495 19.495Z" fill="#ACB0FF"/>
</svg>
