<svg width="20" height="20" viewBox="0 0 20 20" fill="none" xmlns="http://www.w3.org/2000/svg">
<path d="M17.0886 2.94601L15.4391 4.59553C14.0487 3.21598 12.1341 2.36353 10.0198 2.36353C5.76939 2.36353 2.32397 5.80894 2.32397 10.0593C2.32397 12.1727 3.17643 14.0872 4.55598 15.4786L2.94601 17.0886C1.12639 15.2769 0 12.77 0 10C0 4.47785 4.47785 0 10 0C12.77 0 15.2769 1.12639 17.0876 2.94601H17.0886Z" fill="url(#paint0_linear_122_397)"/>
<path d="M20.001 10C20.001 15.5231 15.5231 20 10.001 20C7.24781 20 4.75473 18.8875 2.94598 17.0876L4.55595 15.4776C5.95034 16.8839 7.88368 17.7542 10.0198 17.7542C14.2702 17.7542 17.7156 14.3087 17.7156 10.0583C17.7156 7.92227 16.8453 5.98892 15.4391 4.59453L17.0886 2.94501C18.8884 4.75375 20.001 7.24683 20.001 10Z" fill="url(#paint1_linear_122_397)"/>
<path d="M12.6958 8.5374H11.4962L12.5128 7.52078C12.6345 7.82043 12.6958 8.15864 12.6958 8.5374Z" fill="#5660D1"/>
<path d="M15.4381 4.59553L12.5129 7.52077C12.4199 7.29233 12.2913 7.08762 12.1272 6.90566C11.7484 6.48635 11.2233 6.23418 10.5528 6.14814V5.03362H9.64399V6.13331C8.96559 6.19462 8.42267 6.4102 8.01326 6.78006C7.60384 7.14992 7.39914 7.6246 7.39914 8.20312C7.39914 8.53936 7.45847 8.82911 7.57813 9.0714C7.69779 9.31468 7.86393 9.52631 8.07853 9.70629C8.29213 9.88627 8.54925 10.0455 8.8489 10.1839C9.05756 10.2809 9.29391 10.3788 9.55796 10.4757L8.68078 11.3528H7.08664C7.08664 11.8483 7.19245 12.2735 7.40408 12.6296L4.55598 15.4786C3.17544 14.0872 2.32397 12.1727 2.32397 10.0593C2.32397 5.80894 5.76939 2.36353 10.0198 2.36353C12.1331 2.36353 14.0477 3.21598 15.4381 4.59553Z" fill="#7882F0"/>
<path d="M11.4963 8.53739L10.5805 9.45412C10.4668 9.40962 10.3471 9.36413 10.2205 9.31864C9.76762 9.15448 9.45809 8.99229 9.29096 8.83505C9.12482 8.67781 9.04175 8.46915 9.04175 8.20906C9.04175 7.92821 9.1268 7.70768 9.29689 7.54846C9.46797 7.38925 9.70828 7.30914 10.0188 7.30914C10.3293 7.30914 10.5845 7.411 10.7724 7.61571C10.9593 7.81844 11.0532 8.12599 11.0532 8.53739H11.4963Z" fill="#7882F0"/>
<path d="M17.7156 10.0594C17.7156 14.3098 14.2702 17.7552 10.0198 17.7552C7.88271 17.7552 5.94936 16.8839 4.55597 15.4787L7.40407 12.6296C7.49308 12.7789 7.59988 12.9154 7.72547 13.041C8.15269 13.4632 8.75395 13.7124 9.53026 13.7886V14.8052H10.4331V13.7836C11.1383 13.7184 11.6911 13.5038 12.0936 13.1408C12.4951 12.7779 12.6958 12.3052 12.6958 11.7227C12.6958 11.4112 12.6424 11.1383 12.5366 10.9029C12.4298 10.6685 12.2765 10.4599 12.0758 10.2759C11.875 10.093 11.6288 9.92882 11.337 9.78345C11.1264 9.67862 10.8742 9.56786 10.5805 9.45414L11.4962 8.5374H12.6958C12.6958 8.15865 12.6345 7.82043 12.5129 7.52079L15.4381 4.59555C16.8443 5.98993 17.7156 7.92328 17.7156 10.0594Z" fill="#5660D1"/>
<path d="M12.6958 11.7227C12.6958 12.3052 12.495 12.7779 12.0935 13.1408C11.691 13.5038 11.1382 13.7184 10.4331 13.7836V14.8052H9.53024V13.7886C8.75393 13.7124 8.15267 13.4632 7.72545 13.041C7.59986 12.9154 7.49306 12.7789 7.40405 12.6296L8.68075 11.3529H8.72921C8.72921 11.7603 8.83602 12.0728 9.04962 12.2904C9.26422 12.5079 9.57177 12.6167 9.97328 12.6167C10.3065 12.6167 10.5696 12.5366 10.7634 12.3784C10.9563 12.2192 11.0532 12.0036 11.0532 11.7336C11.0532 11.4636 10.9671 11.2293 10.7941 11.0631C10.622 10.896 10.3293 10.7437 9.91592 10.6033C9.79132 10.5607 9.67265 10.5182 9.55793 10.4757L10.5805 9.45413C10.8742 9.56786 11.1264 9.67862 11.337 9.78344C11.6287 9.92882 11.875 10.093 12.0757 10.2759C12.2765 10.4599 12.4298 10.6685 12.5366 10.9029C12.6424 11.1383 12.6958 11.4112 12.6958 11.7227Z" fill="#5660D1"/>
<path d="M12.5128 7.52078L11.4962 8.53739H11.0532C11.0532 8.126 10.9592 7.81844 10.7723 7.61571C10.5844 7.41101 10.3332 7.30915 10.0188 7.30915C9.70429 7.30915 9.46794 7.38925 9.29686 7.54847C9.12676 7.70768 9.04171 7.92821 9.04171 8.20907C9.04171 8.46915 9.12478 8.67782 9.29092 8.83506C9.45805 8.9923 9.76758 9.15448 10.2205 9.31864C10.3471 9.36413 10.4668 9.40962 10.5805 9.45412L9.55793 10.4757C9.29389 10.3788 9.05754 10.2809 8.84887 10.1839C8.54923 10.0455 8.29211 9.88628 8.0785 9.7063C7.8639 9.52631 7.69776 9.31468 7.5781 9.07141C7.45844 8.82912 7.39911 8.53937 7.39911 8.20313C7.39911 7.62461 7.60382 7.14993 8.01323 6.78007C8.42265 6.41021 8.96556 6.19463 9.64397 6.13331V5.03363H10.5528V6.14815C11.2233 6.23418 11.7484 6.48636 12.1272 6.90566C12.2913 7.08763 12.4199 7.29233 12.5128 7.52078Z" fill="#7882F0"/>
<path d="M8.68082 11.3528L7.40411 12.6295C7.19248 12.2735 7.08667 11.8483 7.08667 11.3528H8.68082Z" fill="#7882F0"/>
<path d="M11.0532 11.7336C11.0532 12.0036 10.9563 12.2192 10.7635 12.3784C10.5696 12.5366 10.3066 12.6167 9.97331 12.6167C9.57181 12.6167 9.26425 12.5079 9.04966 12.2904C8.83605 12.0728 8.72924 11.7603 8.72924 11.3529H8.68079L9.55796 10.4757C9.67268 10.5182 9.79135 10.5607 9.91595 10.6032C10.3293 10.7437 10.622 10.896 10.7941 11.0631C10.9672 11.2292 11.0532 11.4517 11.0532 11.7336Z" fill="#5660D1"/>
<path d="M16.2124 12.2785C15.5805 14.4452 14.0971 15.712 11.9581 16.252C10.2295 16.6891 8.54531 16.5141 6.96204 15.6853C5.55184 14.9476 4.57775 13.8074 4.04669 12.2963C3.74408 11.4359 3.59871 10.5479 3.64124 9.63905C3.70552 8.29906 4.16042 7.0995 5.03265 6.072C6.23914 4.65092 7.82735 3.92307 9.61731 3.57101C9.73103 3.54926 9.84476 3.52552 9.95848 3.50377C10.1513 3.46817 10.1573 3.47014 10.1147 3.6709C10.0366 4.03878 9.95848 4.40666 9.86651 4.77058C9.83091 4.912 9.85465 4.99605 9.98716 5.06429C10.1296 5.13747 10.2552 5.24427 10.3976 5.31449C10.6557 5.44107 10.8149 5.63984 10.8792 5.91279C10.9939 6.40033 11.2856 6.73953 11.6871 7.03324C12.324 7.501 12.9282 8.01425 13.5443 8.51069C13.6986 8.63431 13.7935 8.78759 13.7787 8.99724C13.7698 9.12383 13.7787 9.25239 13.7757 9.37897C13.7688 9.6796 13.6106 9.912 13.3278 10.0129C12.9628 10.1434 12.5969 10.268 12.2271 10.3827C11.8958 10.4866 11.5744 10.448 11.3054 10.2196C11.1037 10.0485 10.893 9.94661 10.6211 9.93474C10.2136 9.91694 9.80718 9.8586 9.40073 9.82497C9.19306 9.80816 9.19207 9.81409 9.28305 9.99606C9.59951 10.63 9.91497 11.2629 10.2314 11.8968C10.3194 12.0738 10.3303 12.2478 10.1958 12.408C10.001 12.6395 9.65686 12.6098 9.49369 12.3438C9.41359 12.2112 9.34931 12.0698 9.28008 11.9314C8.92506 11.2184 8.56905 10.5054 8.21897 9.79036C8.16952 9.6885 8.10128 9.62917 7.99745 9.58565C7.63451 9.43534 7.30223 9.23755 7.08665 8.89439C6.94029 8.662 6.91161 8.40784 6.99863 8.14578C7.07478 7.91833 7.2785 7.79867 7.50397 7.84416C7.71956 7.88767 7.85999 8.07359 7.83428 8.30895C7.81944 8.43949 7.86889 8.51267 7.96679 8.58486C8.25259 8.79748 8.57597 8.87956 8.92605 8.90725C9.60247 8.96263 10.2779 9.0368 10.9553 9.10009C11.2668 9.12976 11.5279 9.26326 11.7494 9.47489C11.8473 9.56785 11.9423 9.57675 12.0659 9.53225C12.2993 9.44621 12.5386 9.376 12.773 9.29392C12.8303 9.27414 12.9134 9.27612 12.9243 9.18712C12.9342 9.10701 12.8699 9.07042 12.8194 9.02988C12.2409 8.56607 11.6594 8.10622 11.0839 7.63945C10.2492 6.96006 10.4876 7.29827 10.1029 6.2688C10.0574 6.14716 9.99409 6.05915 9.88135 5.99487C9.67961 5.87916 9.4838 5.75357 9.28701 5.63094C8.95077 5.42129 8.89144 5.28185 8.97253 4.90013C9.01934 4.68059 8.93495 4.60543 8.71936 4.67465C7.63748 5.02276 6.66734 5.56271 5.88708 6.40033C5.07715 7.26959 4.59357 8.29708 4.50852 9.48973C4.41952 10.7447 4.65488 11.9343 5.29867 13.0291C5.79808 13.8776 6.50417 14.5085 7.37739 14.9525C8.53641 15.5429 9.76565 15.7259 11.0522 15.5588C12.1776 15.4124 13.1863 14.998 14.0437 14.2445C14.4007 13.932 14.6905 13.5641 14.9249 13.1507C15.0069 13.0073 14.9783 12.949 14.8101 12.947C14.5224 12.9421 14.2346 12.945 13.9478 12.945C13.5829 12.945 13.217 12.946 12.8521 12.945C12.592 12.9431 12.4001 12.7542 12.4061 12.5129C12.411 12.2815 12.6058 12.0946 12.8521 12.0936C13.394 12.0916 13.9369 12.0936 14.4798 12.0936C15.0109 12.0936 15.542 12.0936 16.073 12.0936C16.2639 12.0936 16.2649 12.0985 16.2124 12.2785Z" fill="white"/>
<defs>
<linearGradient id="paint0_linear_122_397" x1="1.59711" y1="2.49703" x2="14.3513" y2="13.8707" gradientUnits="userSpaceOnUse">
<stop offset="0.19" stop-color="#96AAFF"/>
<stop offset="0.32" stop-color="#9DB0FF"/>
<stop offset="0.52" stop-color="#B2C1FF"/>
<stop offset="0.76" stop-color="#D5DDFF"/>
<stop offset="1" stop-color="white"/>
</linearGradient>
<linearGradient id="paint1_linear_122_397" x1="9.58562" y1="9.64201" x2="19.2059" y2="18.2209" gradientUnits="userSpaceOnUse">
<stop offset="0.37" stop-color="#6E78FA"/>
<stop offset="0.45" stop-color="#747DFA"/>
<stop offset="0.55" stop-color="#868EFA"/>
<stop offset="0.67" stop-color="#A3A9FB"/>
<stop offset="0.8" stop-color="#CCCFFD"/>
<stop offset="0.94" stop-color="white"/>
</linearGradient>
</defs>
</svg>
