<svg width="22" height="23" viewBox="0 0 22 23" fill="none" xmlns="http://www.w3.org/2000/svg">
<path d="M11.4217 21.3541C11.2658 21.3541 11.11 21.3541 10.9542 21.345C5.82083 21.1158 1.53083 16.9816 1.17333 11.94C0.86166 7.61332 3.36416 3.57082 7.39749 1.87498C8.54333 1.39832 9.14833 1.76498 9.40499 2.03082C9.66166 2.28748 10.0192 2.88332 9.54249 3.97415C9.12083 4.94582 8.90999 5.98165 8.91916 7.04498C8.93749 11.1058 12.3108 14.5525 16.4267 14.7175C17.0225 14.745 17.6092 14.6991 18.1775 14.5983C19.3875 14.3783 19.8917 14.8641 20.0842 15.1758C20.2767 15.4875 20.4967 16.1566 19.7633 17.1466C17.82 19.805 14.7308 21.3541 11.4217 21.3541ZM2.53916 11.8391C2.85083 16.2025 6.57249 19.7775 11.0092 19.97C14.025 20.1166 16.885 18.7416 18.645 16.34C18.7825 16.1475 18.8467 16.01 18.8742 15.9366C18.7917 15.9275 18.645 15.9183 18.4158 15.9641C17.7467 16.0833 17.05 16.1291 16.3625 16.1016C11.5225 15.9091 7.56249 11.8483 7.53499 7.06332C7.53499 5.79832 7.78249 4.57915 8.28666 3.43332C8.37833 3.23165 8.39666 3.09415 8.40583 3.02082C8.32333 3.02082 8.17666 3.03915 7.93833 3.13998C4.44583 4.60665 2.28249 8.10832 2.53916 11.8391Z" fill="white"/>
</svg>
