<svg width="29" height="28" viewBox="0 0 29 28" fill="none" xmlns="http://www.w3.org/2000/svg">
<path d="M11.1862 13.5567C11.1512 13.5567 11.1279 13.5567 11.0929 13.5567C11.0345 13.545 10.9529 13.545 10.8829 13.5567C7.49955 13.4517 4.94455 10.7917 4.94455 7.51333C4.94455 4.17667 7.66288 1.45833 10.9995 1.45833C14.3362 1.45833 17.0545 4.17667 17.0545 7.51333C17.0429 10.7917 14.4762 13.4517 11.2212 13.5567C11.2095 13.5567 11.1979 13.5567 11.1862 13.5567ZM10.9995 3.20833C8.63122 3.20833 6.69455 5.145 6.69455 7.51333C6.69455 9.84667 8.51455 11.725 10.8362 11.8067C10.9062 11.795 11.0579 11.795 11.2095 11.8067C13.4962 11.7017 15.2929 9.82333 15.3045 7.51333C15.3045 5.145 13.3679 3.20833 10.9995 3.20833Z" fill="white"/>
<path d="M19.7962 13.7083C19.7612 13.7083 19.7262 13.7083 19.6912 13.6967C19.2129 13.7433 18.7229 13.405 18.6762 12.9267C18.6295 12.4483 18.9212 12.0167 19.3995 11.9583C19.5395 11.9467 19.6912 11.9467 19.8195 11.9467C21.5229 11.8533 22.8529 10.4533 22.8529 8.73833C22.8529 6.965 21.4179 5.53 19.6445 5.53C19.1662 5.54167 18.7695 5.145 18.7695 4.66667C18.7695 4.18833 19.1662 3.79167 19.6445 3.79167C22.3745 3.79167 24.6029 6.02 24.6029 8.75C24.6029 11.4333 22.5029 13.6033 19.8312 13.7083C19.8195 13.7083 19.8079 13.7083 19.7962 13.7083Z" fill="white"/>
<path d="M11.1979 26.3083C8.91121 26.3083 6.61288 25.725 4.87454 24.5583C3.25288 23.485 2.36621 22.015 2.36621 20.4167C2.36621 18.8183 3.25288 17.3367 4.87454 16.2517C8.37454 13.93 14.0445 13.93 17.5212 16.2517C19.1312 17.325 20.0295 18.795 20.0295 20.3933C20.0295 21.9917 19.1429 23.4733 17.5212 24.5583C15.7712 25.725 13.4845 26.3083 11.1979 26.3083ZM5.84288 17.7217C4.72288 18.4683 4.11621 19.425 4.11621 20.4283C4.11621 21.42 4.73454 22.3767 5.84288 23.1117C8.74788 25.06 13.6479 25.06 16.5529 23.1117C17.6729 22.365 18.2795 21.4083 18.2795 20.405C18.2795 19.4133 17.6612 18.4567 16.5529 17.7217C13.6479 15.785 8.74788 15.785 5.84288 17.7217Z" fill="white"/>
<path d="M21.8962 24.2083C21.4879 24.2083 21.1262 23.9283 21.0446 23.5083C20.9512 23.03 21.2546 22.575 21.7212 22.47C22.4562 22.3183 23.1329 22.0267 23.6579 21.6183C24.3229 21.1167 24.6846 20.4867 24.6846 19.8217C24.6846 19.1567 24.3229 18.5267 23.6696 18.0367C23.1562 17.64 22.5146 17.36 21.7562 17.185C21.2895 17.08 20.9862 16.6133 21.0912 16.135C21.1962 15.6683 21.6629 15.365 22.1412 15.47C23.1446 15.6917 24.0196 16.0883 24.7312 16.6367C25.8162 17.4533 26.4346 18.6083 26.4346 19.8217C26.4346 21.035 25.8046 22.19 24.7196 23.0183C23.9962 23.5783 23.0862 23.9867 22.0829 24.185C22.0129 24.2083 21.9546 24.2083 21.8962 24.2083Z" fill="white"/>
</svg>
