<svg width="36" height="35" viewBox="0 0 36 35" fill="none" xmlns="http://www.w3.org/2000/svg">
<path fill-rule="evenodd" clip-rule="evenodd" d="M2.47481 15.0673C12.1385 10.128 18.5824 6.87167 21.8067 5.29839C31.0125 0.806355 32.9254 0.0260412 34.1722 0.000274728C34.4465 -0.00539232 35.0596 0.0743353 35.4568 0.45241C35.7921 0.771649 35.8844 1.2029 35.9286 1.50557C35.9727 1.80824 36.0277 2.49774 35.984 3.0365C35.4851 9.18575 33.3265 24.1084 32.2284 30.9956C31.7637 33.9099 30.8487 34.887 29.9629 34.9827C28.0379 35.1905 26.5761 33.4902 24.7116 32.0564C21.794 29.8127 20.1458 28.416 17.3138 26.2267C14.041 23.6965 16.1626 22.3058 18.0278 20.0331C18.5159 19.4383 26.9977 10.3877 27.1618 9.5667C27.1824 9.46401 27.2014 9.08125 27.0076 8.87914C26.8138 8.67704 26.5277 8.74615 26.3213 8.80112C26.0286 8.87903 21.3678 12.4931 12.3388 19.6433C11.0158 20.709 9.81749 21.2283 8.74386 21.2011C7.56026 21.1711 5.2835 20.416 3.59096 19.7705C1.51499 18.9789 -0.134951 18.5603 0.00872134 17.2158C0.0835549 16.5155 0.905585 15.7994 2.47481 15.0673Z" fill="#E0E2E5"/>
</svg>
