<svg width="32" height="31" viewBox="0 0 32 31" fill="none" xmlns="http://www.w3.org/2000/svg">
<path fill-rule="evenodd" clip-rule="evenodd" d="M2.19983 13.3453C10.7898 8.97048 16.5177 6.08634 19.3837 4.69286C27.5667 0.7142 29.2671 0.0230651 30.3753 0.00024333C30.6191 -0.00477605 31.1641 0.0658399 31.5171 0.400706C31.8152 0.683461 31.8973 1.06542 31.9365 1.3335C31.9758 1.60159 32.0246 2.21229 31.9858 2.68947C31.5423 8.13595 29.6236 21.3531 28.6474 27.4533C28.2344 30.0345 27.4211 30.8999 26.6337 30.9846C24.9226 31.1687 23.6232 29.6627 21.9659 28.3928C19.3725 26.4056 17.9074 25.1685 15.3901 23.2293C12.4809 20.9883 14.3668 19.7566 16.0247 17.7436C16.4586 17.2168 23.9979 9.20056 24.1439 8.47336C24.1621 8.38241 24.1791 8.0434 24.0068 7.86439C23.8345 7.68537 23.5802 7.74659 23.3967 7.79527C23.1366 7.86428 18.9936 11.0653 10.9678 17.3983C9.79182 18.3423 8.72666 18.8022 7.77232 18.7781C6.72023 18.7515 4.69644 18.0827 3.19196 17.511C1.34666 16.8098 -0.119957 16.4391 0.0077523 15.2483C0.074271 14.628 0.804964 13.9937 2.19983 13.3453Z" fill="#565656" fill-opacity="0.878431"/>
</svg>
