<svg width="28" height="38" viewBox="0 0 28 38" fill="none" xmlns="http://www.w3.org/2000/svg">
<path d="M13.9422 37.9955C11.996 38.0563 10.2242 37.4997 8.5671 36.5141C6.58365 35.334 5.15903 33.6596 4.27683 31.5533C3.95048 30.7755 3.78656 29.9249 3.60178 29.0966C3.4915 28.5994 3.4304 28.0769 3.44382 27.5692C3.49746 25.6232 4.00115 23.8004 5.03683 22.1349C5.98311 20.612 7.22742 19.3948 8.80404 18.5309C9.11251 18.3617 9.00224 18.1242 9.01118 17.8926C9.02161 17.8688 9.0231 17.8451 9.01714 17.8199C10.6578 17.8199 12.2985 17.8184 13.9393 17.8169L13.9437 17.8213V20.7916C16.0568 20.8732 17.8406 21.6466 19.1728 23.2452C20.5065 24.8454 20.9849 26.7261 20.6392 28.779C20.1191 31.8739 17.3369 34.3706 13.9393 34.3677C13.9393 30.5988 13.9393 26.8285 13.9407 23.0597C13.9407 22.4422 13.9273 21.8232 13.9467 21.2057C13.9556 20.9222 13.8543 20.8183 13.5831 20.8599C13.0973 20.9356 12.6011 20.9712 12.1272 21.0929C10.6876 21.4625 9.5104 22.2626 8.60734 23.4219C7.43157 24.93 6.96216 26.6504 7.23487 28.5563C7.43754 29.9798 8.04255 31.2178 9.03353 32.2524C10.3643 33.6418 12.0318 34.2905 13.9407 34.3662C13.9407 35.5745 13.9422 36.7842 13.9437 37.9925L13.9422 37.9955Z" fill="#E3E9F2"/>
<path d="M8.20352 15.5844C5.47497 10.4099 2.74643 5.23687 0 0.0267187C0.15349 0.0192969 0.271215 0.00742187 0.390431 0.00742187C3.55411 0.00742187 6.71929 0.011875 9.88446 0C10.1616 0 10.2972 0.0890624 10.4209 0.328046C11.5267 2.45515 12.6458 4.57632 13.7634 6.69749C13.8066 6.78062 13.8826 6.84593 13.9437 6.92015C14.215 7.45897 14.4787 8.00225 14.7574 8.53663C15.6888 10.3223 16.6231 12.1051 17.5604 13.8878C17.86 14.4563 18.1729 15.0159 18.4784 15.58C18.3175 15.5844 18.1565 15.5919 17.9956 15.5919C16.644 15.5963 15.2924 15.6008 13.9408 15.6052C12.3001 15.6052 10.6608 15.6052 9.02014 15.6052C8.77426 15.6052 8.52689 15.6052 8.28101 15.6052C8.25568 15.5978 8.22885 15.5889 8.20352 15.5815V15.5844Z" fill="#ACB0FF"/>
<path d="M18.4784 15.5815C18.1714 15.0174 17.8585 14.4578 17.5604 13.8893C16.6231 12.108 15.6887 10.3238 14.7574 8.5381C14.4787 8.00373 14.2135 7.46045 13.9437 6.92162C14.3088 6.25959 14.6858 5.60201 15.039 4.93256C15.9033 3.29678 16.7587 1.65655 17.6156 0.0192871H27.8651C27.4836 0.754052 27.12 1.46061 26.749 2.16272C26.1082 3.37397 25.4585 4.57928 24.8177 5.79053C24.0607 7.21998 23.3096 8.65092 22.5541 10.0819C21.6167 11.8586 20.6779 13.6354 19.7406 15.4137C19.7138 15.4657 19.6989 15.525 19.678 15.5815C19.2786 15.5815 18.8778 15.5815 18.4784 15.5815Z" fill="#5660D1"/>
<path d="M13.9393 34.3692C17.3369 34.3722 20.1191 31.874 20.6392 28.7805C20.9849 26.7276 20.5066 24.8469 19.1729 23.2468C17.8391 21.6481 16.0569 20.8747 13.9438 20.7931C13.9438 19.7674 13.9438 18.7951 13.9438 17.8229C15.586 17.8229 17.2282 17.8258 18.8704 17.8258C18.775 18.2296 18.9389 18.4344 19.304 18.6586C21.8597 20.2231 23.5287 22.4541 24.1442 25.3961C24.8043 28.5549 24.1501 31.4539 22.1622 34.0025C20.5036 36.1297 18.31 37.43 15.6247 37.8575C15.0704 37.945 14.5041 37.9525 13.9423 37.997C13.9423 36.7887 13.9408 35.5789 13.9393 34.3707V34.3692Z" fill="#ABABAB"/>
<path d="M18.8689 17.8259C17.2267 17.8259 15.5845 17.8229 13.9423 17.8229C13.9423 17.8229 13.9378 17.8185 13.9393 17.8185C13.9393 17.0807 13.9393 16.343 13.9393 15.6053C15.2909 15.6008 16.6425 15.5978 17.9941 15.5919C18.1551 15.5919 18.316 15.5845 18.4769 15.58C18.8763 15.58 19.2772 15.58 19.6765 15.58C20.1549 15.58 20.6347 15.58 21.1354 15.58V17.8244H18.8674L18.8689 17.8259Z" fill="#E3E9F2"/>
<path d="M13.9407 15.6052C13.9407 16.3429 13.9407 17.0807 13.9407 17.8184C12.3 17.8184 10.6593 17.8199 9.01862 17.8214C8.99477 17.8214 8.97093 17.8243 8.95007 17.8347H6.76544V15.5829C7.24826 15.5829 7.72662 15.5829 8.20497 15.5829C8.2303 15.5904 8.25713 15.5993 8.28246 15.6067C8.52834 15.6067 8.77571 15.6067 9.0216 15.6067C10.6623 15.6067 12.3015 15.6067 13.9422 15.6067L13.9407 15.6052Z" fill="#C9CDD4"/>
<path d="M8.94861 17.8347C8.97096 17.8244 8.99331 17.8199 9.01716 17.8214C9.02312 17.8466 9.02163 17.8704 9.0112 17.8941C8.99033 17.8748 8.96947 17.8555 8.94861 17.8362V17.8347Z" fill="#F6EDE1"/>
<path d="M13.9393 34.3692C12.0303 34.292 10.3613 33.6448 9.03207 32.2555C8.04109 31.2208 7.43756 29.9829 7.2334 28.5594C6.96219 26.6534 7.4316 24.9345 8.60587 23.4249C9.50893 22.2656 10.6877 21.4641 12.1257 21.0959C12.5996 20.9742 13.0958 20.9386 13.5816 20.8629C13.8528 20.8213 13.9542 20.9237 13.9452 21.2087C13.9259 21.8262 13.9393 22.4437 13.9393 23.0627C13.9393 26.8316 13.9393 30.6019 13.9378 34.3707L13.9393 34.3692Z" fill="#F6F8FF"/>
</svg>
