<svg width="22" height="23" viewBox="0 0 22 23" fill="none" xmlns="http://www.w3.org/2000/svg">
<path d="M11 18.1458C7.33335 18.1458 4.35419 15.1666 4.35419 11.5C4.35419 7.83329 7.33335 4.85413 11 4.85413C14.6667 4.85413 17.6459 7.83329 17.6459 11.5C17.6459 15.1666 14.6667 18.1458 11 18.1458ZM11 6.22913C8.09419 6.22913 5.72919 8.59413 5.72919 11.5C5.72919 14.4058 8.09419 16.7708 11 16.7708C13.9059 16.7708 16.2709 14.4058 16.2709 11.5C16.2709 8.59413 13.9059 6.22913 11 6.22913Z" fill="white"/>
<path d="M11 21.5466C10.4959 21.5466 10.0834 21.1708 10.0834 20.6666V20.5933C10.0834 20.0891 10.4959 19.6766 11 19.6766C11.5042 19.6766 11.9167 20.0891 11.9167 20.5933C11.9167 21.0975 11.5042 21.5466 11 21.5466ZM17.545 18.9616C17.3067 18.9616 17.0775 18.87 16.8942 18.6958L16.775 18.5766C16.4175 18.2191 16.4175 17.6416 16.775 17.2841C17.1325 16.9266 17.71 16.9266 18.0675 17.2841L18.1867 17.4033C18.5442 17.7608 18.5442 18.3383 18.1867 18.6958C18.0125 18.87 17.7834 18.9616 17.545 18.9616ZM4.45502 18.9616C4.21669 18.9616 3.98752 18.87 3.80419 18.6958C3.44669 18.3383 3.44669 17.7608 3.80419 17.4033L3.92335 17.2841C4.28085 16.9266 4.85835 16.9266 5.21585 17.2841C5.57335 17.6416 5.57335 18.2191 5.21585 18.5766L5.09669 18.6958C4.92252 18.87 4.68419 18.9616 4.45502 18.9616ZM20.1667 12.4166H20.0934C19.5892 12.4166 19.1767 12.0041 19.1767 11.5C19.1767 10.9958 19.5892 10.5833 20.0934 10.5833C20.5975 10.5833 21.0467 10.9958 21.0467 11.5C21.0467 12.0041 20.6709 12.4166 20.1667 12.4166ZM1.90669 12.4166H1.83335C1.32919 12.4166 0.916687 12.0041 0.916687 11.5C0.916687 10.9958 1.32919 10.5833 1.83335 10.5833C2.33752 10.5833 2.78669 10.9958 2.78669 11.5C2.78669 12.0041 2.41085 12.4166 1.90669 12.4166ZM17.4259 5.99079C17.1875 5.99079 16.9584 5.89913 16.775 5.72496C16.4175 5.36746 16.4175 4.78996 16.775 4.43246L16.8942 4.31329C17.2517 3.95579 17.8292 3.95579 18.1867 4.31329C18.5442 4.67079 18.5442 5.24829 18.1867 5.60579L18.0675 5.72496C17.8934 5.89913 17.6642 5.99079 17.4259 5.99079ZM4.57419 5.99079C4.33585 5.99079 4.10669 5.89913 3.92335 5.72496L3.80419 5.59663C3.44669 5.23913 3.44669 4.66163 3.80419 4.30413C4.16169 3.94663 4.73919 3.94663 5.09669 4.30413L5.21585 4.42329C5.57335 4.78079 5.57335 5.35829 5.21585 5.71579C5.04169 5.89913 4.80335 5.99079 4.57419 5.99079ZM11 3.28663C10.4959 3.28663 10.0834 2.91079 10.0834 2.40663V2.33329C10.0834 1.82913 10.4959 1.41663 11 1.41663C11.5042 1.41663 11.9167 1.82913 11.9167 2.33329C11.9167 2.83746 11.5042 3.28663 11 3.28663Z" fill="white"/>
</svg>
